<svg xmlns="http://www.w3.org/2000/svg" width="1600" height="1000" viewBox="0 0 1600 1000">
<rect width="1600" height="1000" fill="#071018"/><rect width="230" height="1000" fill="#050B12"/>
<g font-family="Arial">
<text x="34" y="42" fill="#D6A84F" font-size="12" font-weight="700">ANALYTICS OS / PORTFOLIO</text>
<text x="34" y="82" fill="#F4F7FA" font-size="18" font-weight="700">EXECUTIVE</text>
<text x="34" y="145" fill="#F4F7FA" font-size="13" font-weight="700">Overview</text><text x="34" y="191" fill="#7F8D9C" font-size="13">Performance</text><text x="34" y="237" fill="#7F8D9C" font-size="13">Drivers</text><text x="34" y="283" fill="#7F8D9C" font-size="13">Segments</text><text x="34" y="329" fill="#7F8D9C" font-size="13">Deep Dive</text><text x="34" y="375" fill="#7F8D9C" font-size="13">Insights</text><text x="34" y="421" fill="#7F8D9C" font-size="13">Data Quality</text>
<rect x="265" y="28" width="1295" height="74" rx="14" fill="#0D1821"/><text x="292" y="56" fill="#718293" font-size="10">BUSINESS INTELLIGENCE / EXECUTIVE WORKSPACE</text><text x="292" y="84" fill="#F4F7FA" font-size="21" font-weight="700">Acquisition Efficiency Command Center</text><text x="1230" y="69" fill="#718293" font-size="11">SEO • paid media • content • conversion</text>
<rect x="265" y="125" width="300" height="105" rx="14" fill="#0D1821"/><text x="289" y="154" fill="#7F8D9C" font-size="10">PAID REVENUE</text><text x="289" y="195" fill="#F4F7FA" font-size="28" font-weight="700">₹11.17L</text><text x="289" y="216" fill="#D6A84F" font-size="10" font-weight="700">simulation</text><rect x="590" y="125" width="300" height="105" rx="14" fill="#0D1821"/><text x="614" y="154" fill="#7F8D9C" font-size="10">CONVERSIONS</text><text x="614" y="195" fill="#F4F7FA" font-size="28" font-weight="700">679</text><text x="614" y="216" fill="#D6A84F" font-size="10" font-weight="700">simulation</text><rect x="915" y="125" width="300" height="105" rx="14" fill="#0D1821"/><text x="939" y="154" fill="#7F8D9C" font-size="10">SEO AVG SCORE</text><text x="939" y="195" fill="#F4F7FA" font-size="28" font-weight="700">85</text><text x="939" y="216" fill="#D6A84F" font-size="10" font-weight="700">sample average</text><rect x="1240" y="125" width="300" height="105" rx="14" fill="#0D1821"/><text x="1264" y="154" fill="#7F8D9C" font-size="10">CONTENT ENG.</text><text x="1264" y="195" fill="#F4F7FA" font-size="28" font-weight="700">10.8%</text><text x="1264" y="216" fill="#D6A84F" font-size="10" font-weight="700">sample average</text>
<rect x="265" y="255" width="815" height="310" rx="16" fill="#0D1821"/><text x="292" y="290" fill="#F4F7FA" font-size="17" font-weight="700">Acquisition Efficiency Command Center</text><text x="292" y="313" fill="#657687" font-size="10">SEO • paid media • content • conversion</text>
<line x1="305" y1="510" x2="1035" y2="510" stroke="#263640"/><line x1="305" y1="365" x2="1035" y2="365" stroke="#18262F"/>
<rect x="320" y="470" width="48" height="40" rx="5" fill="#D6A84F" opacity="0.38"/><text x="332" y="530" fill="#647586" font-size="9">1</text><rect x="405" y="436" width="48" height="74" rx="5" fill="#D6A84F" opacity="0.45"/><text x="417" y="530" fill="#647586" font-size="9">2</text><rect x="490" y="402" width="48" height="108" rx="5" fill="#D6A84F" opacity="0.52"/><text x="502" y="530" fill="#647586" font-size="9">3</text><rect x="575" y="368" width="48" height="142" rx="5" fill="#D6A84F" opacity="0.5900000000000001"/><text x="587" y="530" fill="#647586" font-size="9">4</text><rect x="660" y="470" width="48" height="40" rx="5" fill="#D6A84F" opacity="0.66"/><text x="672" y="530" fill="#647586" font-size="9">5</text><rect x="745" y="436" width="48" height="74" rx="5" fill="#D6A84F" opacity="0.73"/><text x="757" y="530" fill="#647586" font-size="9">6</text><rect x="830" y="402" width="48" height="108" rx="5" fill="#D6A84F" opacity="0.8"/><text x="842" y="530" fill="#647586" font-size="9">7</text><rect x="915" y="368" width="48" height="142" rx="5" fill="#D6A84F" opacity="0.8700000000000001"/><text x="927" y="530" fill="#647586" font-size="9">8</text>
<polyline points="325,475 410,450 495,460 580,420 665,435 750,395 835,410 920,370 1015,385" fill="none" stroke="#F4F7FA" stroke-width="2.5" opacity=".78"/>
<rect x="1100" y="255" width="460" height="310" rx="16" fill="#0D1821"/><text x="1128" y="290" fill="#D6A84F" font-size="10" font-weight="700">EXECUTIVE SIGNALS</text>
<text x="1128" y="335" fill="#E8EEF2" font-size="12" font-weight="600">1. Brand paid search shows strong sample economics</text><text x="1128" y="388" fill="#E8EEF2" font-size="12" font-weight="600">2. Generic and competitor campaigns need efficiency review</text><text x="1128" y="441" fill="#E8EEF2" font-size="12" font-weight="600">3. SEO pages should be prioritized by evidence</text><text x="1128" y="494" fill="#E8EEF2" font-size="12" font-weight="600">4. Content calendar balances funnel stages</text>
<rect x="265" y="590" width="400" height="355" rx="16" fill="#0D1821"/><text x="292" y="625" fill="#F4F7FA" font-size="16" font-weight="700">Driver / Segment View</text><text x="292" y="650" fill="#657687" font-size="10">Compare concentration, variance and outliers</text>
<rect x="292" y="690" width="125" height="18" rx="4" fill="#D6A84F" opacity="0.45"/><text x="302" y="704" fill="#E8EEF2" font-size="9">Dimension 1</text><rect x="292" y="735" width="185" height="18" rx="4" fill="#D6A84F" opacity="0.53"/><text x="302" y="749" fill="#E8EEF2" font-size="9">Dimension 2</text><rect x="292" y="780" width="245" height="18" rx="4" fill="#D6A84F" opacity="0.61"/><text x="302" y="794" fill="#E8EEF2" font-size="9">Dimension 3</text><rect x="292" y="825" width="125" height="18" rx="4" fill="#D6A84F" opacity="0.69"/><text x="302" y="839" fill="#E8EEF2" font-size="9">Dimension 4</text><rect x="292" y="870" width="185" height="18" rx="4" fill="#D6A84F" opacity="0.77"/><text x="302" y="884" fill="#E8EEF2" font-size="9">Dimension 5</text>
<rect x="685" y="590" width="400" height="355" rx="16" fill="#0D1821"/><text x="712" y="625" fill="#F4F7FA" font-size="16" font-weight="700">Deep-Dive Lens</text><text x="712" y="650" fill="#657687" font-size="10">Distribution • benchmark • exception analysis</text><circle cx="885" cy="780" r="105" fill="none" stroke="#263640" stroke-width="32"/><path d="M885 675 A105 105 0 0 1 978 820" fill="none" stroke="#D6A84F" stroke-width="32"/><text x="852" y="790" fill="#F4F7FA" font-size="25" font-weight="700">Signal</text><text x="830" y="815" fill="#657687" font-size="10">portfolio visual</text>
<rect x="1100" y="590" width="460" height="355" rx="16" fill="#0D1821"/><text x="1128" y="625" fill="#F4F7FA" font-size="16" font-weight="700">Decision Layer</text><text x="1128" y="650" fill="#657687" font-size="10">Evidence → investigation → measurement</text>
<text x="1128" y="700" fill="#718293" font-size="10">Primary driver</text><text x="1320" y="700" fill="#F4F7FA" font-size="10" font-weight="600">Channel economics</text><text x="1128" y="752" fill="#718293" font-size="10">Risk / opportunity</text><text x="1320" y="752" fill="#F4F7FA" font-size="10" font-weight="600">CPC / CVR</text><text x="1128" y="804" fill="#718293" font-size="10">Next investigation</text><text x="1320" y="804" fill="#F4F7FA" font-size="10" font-weight="600">Landing + intent</text><text x="1128" y="856" fill="#718293" font-size="10">Measurement</text><text x="1320" y="856" fill="#F4F7FA" font-size="10" font-weight="600">ROAS + CVR</text>
<text x="292" y="970" fill="#536575" font-size="9">DESIGN SYSTEM • HIGH-DENSITY EXECUTIVE ANALYTICS • SAMPLE / SIMULATION LABELS SHOULD REMAIN VISIBLE IN PRODUCTION</text>
</g></svg>